<svg width="24" height="24" xmlns="http://www.w3.org/2000/svg" fill-rule="evenodd" clip-rule="evenodd"><path d="M10.874 20c-.445 1.724-2.012 3-3.874 3-2.208 0-4-1.792-4-4 0-.728.195-1.412.536-2h-1.536v-2h9.92l3.08-10h4.279c.431 0 .812.275.948.684l1.773 5.316 1.337.668c.406.203.663.619.663 1.074v4.258c0 .553-.448 1-1 1h-1.126c.082.32.126.655.126 1 0 2.208-1.792 4-4 4-1.862 0-3.429-1.276-3.874-3h-3.252zm-3.874-2.5c.828 0 1.5.672 1.5 1.5s-.672 1.5-1.5 1.5-1.5-.672-1.5-1.5.672-1.5 1.5-1.5zm11 0c.828 0 1.5.672 1.5 1.5s-.672 1.5-1.5 1.5-1.5-.672-1.5-1.5.672-1.5 1.5-1.5zm1.892-6.5h-4.648l-1.232 4-.644 2h-2.904c.14.237.26.485.351.794l.059.206h3.248c.076-.301.203-.621.341-.869.672-1.267 2.004-2.131 3.537-2.131 1.013 0 1.939.378 2.645 1h1.355v-2.765l-1.635-.816-.473-1.419zm-8.892 3h-9l-2-8h2.126l4.925-4.634c.255-.24.555-.366.86-.366.579 0 1.037.435 1.282.964l1.836 3.948.971-2.912h7v1h-5l-3 10zm-6.745-6h-1.693l1 4h5.95l1.2-4h-2.81l.824 3h-1.042l-.777-3h-1.657l.824 3h-1.042l-.777-3zm14.303-1h-2.082l-.616 2h3.365l-.667-2zm-13.514-1h3.82l-1.162-2.5-2.658 2.5z " stroke="#E8112B"/></svg>